<?xml version="1.0" encoding="UTF-8" standalone="no"?>
<!DOCTYPE svg PUBLIC "-//W3C//DTD SVG 1.1//EN" "http://www.w3.org/Graphics/SVG/1.1/DTD/svg11.dtd">
<svg width="100%" height="100%" viewBox="0 0 448 993" version="1.1" xmlns="http://www.w3.org/2000/svg" xmlns:xlink="http://www.w3.org/1999/xlink" xml:space="preserve" xmlns:serif="http://www.serif.com/" style="fill-rule:evenodd;clip-rule:evenodd;stroke-linejoin:round;stroke-miterlimit:2;">
    <path d="M223.19,931.02C228.047,932.068 233.19,933.591 234.714,934.353L237.476,935.877L234.523,937.02C230.238,938.734 220.714,939.972 212.428,939.972C200.238,940.068 181,935.877 181,933.21C181,932.449 185.666,930.639 190.523,929.687C196.428,928.449 215.095,929.21 223.19,931.02Z" style="fill:rgb(188,96,0);"/>
    <path d="M219.857,888.068C224.428,888.639 230.238,889.877 232.714,890.925C237.095,892.639 237.285,892.83 235.285,893.877C230.428,896.449 219.19,898.353 208.047,898.353C196.428,898.353 180.428,896.449 179.476,894.925C178.428,893.306 185.571,890.544 195,888.925C206.523,886.83 209.285,886.734 219.857,888.068Z" style="fill:rgb(188,96,0);"/>
    <g id="Layer1">
        <path d="M5.575,242.82C37.21,233.684 35.582,230.288 66.507,219.549C141.398,193.545 136.78,184.376 143.307,182.376C174.067,172.954 174.662,177.352 206.431,171.494C257.661,162.048 316.993,179.495 305.14,156.347C299.051,144.454 304.929,142.08 296.525,131.905C282.728,115.201 288.475,109.954 269.667,99.113C243.134,83.82 243.738,79.588 213.194,81.095C182.617,82.604 177.159,72.749 119.394,116.039C64.473,157.197 74.609,166.917 13.661,232.013C13.095,232.617 8.418,237.613 7.916,240.628" style="fill:none;"/>
        <path d="M9.985,240.189C9.896,239.965 9.885,239.975 9.918,239.946C27.712,224.779 27.654,224.875 41.727,205.949C71.363,166.092 87.209,157.915 99.788,140.745C140.025,85.825 216.898,76.936 242.583,82.15C263.353,86.367 287.53,116.644 289.576,120.005C301.4,139.441 320.306,163.111 296.827,165.261C291.759,165.725 196.423,158.127 127.44,183.32C69.914,204.328 64.738,224.096 9.985,240.189Z" style="fill:rgb(188,96,0);"/>
        <path d="M6.541,234.941C23.304,220.653 23.385,220.561 36.912,202.369C66.534,162.531 82.375,154.36 94.948,137.199C136.871,79.978 217.016,70.838 243.776,76.27C252.955,78.133 262.829,84.437 271.406,91.767C283.733,102.303 293.403,114.752 294.701,116.887C302.212,129.233 312.145,143.339 313.743,153.023C314.577,158.081 313.562,162.316 310.741,165.543C308.292,168.346 304.138,170.617 297.374,171.236C292.352,171.696 197.858,163.991 129.498,188.956C100.669,199.484 85.241,209.713 69.885,219.289C54.975,228.588 40.136,237.305 14.211,245.188C13.613,245.731 12.895,246.161 12.08,246.432C11.121,246.752 10.138,246.815 9.205,246.66C8.839,246.764 8.471,246.868 8.1,246.972C4.911,247.866 1.597,246.002 0.704,242.814C-0.19,239.625 1.673,236.311 4.862,235.417C5.427,235.259 5.986,235.1 6.541,234.941ZM34.843,224.81C46.051,219.823 54.779,214.568 63.535,209.107C79.461,199.175 95.481,188.603 125.382,177.684C194.988,152.264 291.166,159.754 296.28,159.286C297.947,159.133 299.321,158.865 300.421,158.425C301.082,158.161 301.615,157.919 301.844,157.437C302.616,155.816 301.769,153.717 300.83,151.244C297.667,142.91 290.169,132.524 284.45,123.124C283.294,121.225 274.575,110.261 263.61,100.89C256.659,94.949 248.827,89.54 241.389,88.03C216.781,83.035 143.179,91.673 104.628,144.291C92.043,161.469 76.192,169.653 46.541,209.529C41.225,216.679 37.869,221.191 34.843,224.81Z" style="fill:rgb(188,96,0);"/>
        <path d="M232.362,878.55C234.948,885.133 265.007,863.204 249.702,859.473C241.722,857.528 174.945,857.37 171.277,866.083C165.663,879.418 231.634,871.025 239.237,876.85" style="fill:rgb(188,96,0);"/>
        <path d="M226.758,880.692C226.25,880.658 225.743,880.63 225.245,880.612C208.947,879.991 183.846,880.966 173.522,877.443C169.478,876.063 167,873.841 165.863,871.553L165.166,869.607L164.939,867.533L165.171,865.543L165.747,863.755L166.962,861.725L169.118,859.718C171.076,858.327 174.393,856.999 178.749,856.012C198.735,851.482 244.487,852.027 251.122,853.644C253.131,854.133 254.667,854.861 255.836,855.674L257.86,857.519L259.325,859.948L259.869,861.815L260.023,863.643L259.499,866.88C258.487,870.141 255.54,874.065 251.667,877.417C246.476,881.907 239.757,885.312 235.732,885.715L232.546,885.566L230.051,884.599L228.092,882.948L226.778,880.744C226.771,880.727 226.764,880.709 226.758,880.692ZM240.515,870.86C240.552,870.835 240.588,870.811 240.624,870.787C242.92,869.23 245.17,867.316 246.734,865.392C246.813,865.294 246.895,865.186 246.976,865.071C238.85,863.963 208.463,863.844 189.11,866.394C187.366,866.624 185.541,866.98 183.828,867.37C196.316,868.911 215.791,868.058 228.255,868.737C233.53,869.025 237.789,869.827 240.515,870.86Z" style="fill:rgb(188,96,0);"/>
    </g>
    <path d="M365.38,87.021C367.761,97.878 370.999,125.307 370.999,134.259C370.999,145.783 368.428,163.497 364.428,178.83C352.333,224.925 350.333,239.497 352.904,263.021L353.761,270.544L348.237,285.021C345.19,292.925 342.523,299.021 342.428,298.449C342.333,297.973 341.666,291.021 340.999,283.021C339.857,269.402 338.237,256.925 334.428,231.973C332.333,218.164 326.809,196.735 322.999,187.687C321.38,183.783 320.047,180.164 320.047,179.687C320.047,179.211 323.571,172.83 327.857,165.687C339.571,146.164 349.952,124.259 354.809,109.021C357.952,99.021 361.952,82.449 362.047,79.307C362.047,74.926 363.571,78.354 365.38,87.021Z" style="fill:rgb(9,188,0);"/>
    <path d="M147.666,194.735C141.19,207.497 137.19,225.592 127,286.544C119.762,329.783 118.619,335.973 117.762,335.973C117,335.973 109.285,320.259 107,313.783C105.857,310.735 105.857,309.211 106.904,304.83C116.333,266.164 119,253.973 121.857,236.83C123.476,227.306 125.095,216.545 125.476,212.83C126.047,206.735 126.523,205.783 129.857,202.83C133.762,199.402 147.952,190.068 149.285,190.068C149.666,190.068 149,192.164 147.666,194.735Z" style="fill:rgb(9,188,0);"/>
    <path d="M293.761,179.973C304.809,184.83 309.952,194.83 315.38,221.973C319.952,244.735 323.857,275.687 325.952,305.497C328.714,344.735 328.238,386.544 324.428,423.497C322.047,446.83 315.476,483.687 310.523,501.973C309.666,505.02 307.857,511.782 306.428,517.02C299.095,544.163 282.142,590.639 270.904,614.544C269.857,616.83 268.999,618.925 268.999,619.211C268.999,619.592 266.809,624.544 264.142,630.163C261.476,635.877 257.666,643.973 255.666,648.258C248.142,664.258 243.571,673.592 242.238,675.782C240.714,678.068 240.714,678.068 238.619,676.258C237.476,675.211 232.333,671.496 227.285,668.068C211.095,657.116 212.047,658.354 192.142,619.02C158.238,551.782 153.381,535.401 148.523,471.973C146.809,450.163 145.381,436.163 143.952,427.973C140.619,408.354 136.714,392.068 131.857,377.211C129.857,371.021 129.857,370.64 131.381,359.211C132.333,352.735 133.666,344.354 134.428,340.544C136.714,329.497 141.571,301.687 145.952,274.544C151.095,242.735 154.333,226.164 157.095,216.83C163.095,196.64 172.142,186.449 188.809,180.926C195,178.83 196.333,178.735 211.476,179.592C233.38,180.83 251.666,180.545 262.999,178.735C276.047,176.64 287.095,177.116 293.761,179.973ZM261.571,262.068C256.238,266.925 253.571,273.021 251.952,283.497C247.761,311.783 263.285,332.64 278.809,319.497C287.571,312.163 291.476,287.687 286.428,272.544C283.19,262.83 277.761,257.973 270.047,257.973C266.619,257.973 265.19,258.735 261.571,262.068ZM192.523,255.306C182.047,261.211 176.904,283.116 181.571,301.306C187.952,325.973 210.238,323.116 216.047,296.925C217.761,289.211 216.809,270.83 214.523,265.497C209.476,253.973 201.476,250.259 192.523,255.306ZM212.523,347.116C200.428,358.259 198.619,374.64 208.619,382.83C216.047,389.021 234.238,390.83 244.619,386.544C249.095,384.64 249.952,383.497 249.952,379.402C250.047,373.973 247.952,373.116 235,373.306C223.19,373.497 220.142,372.735 217.285,369.116C215.19,366.449 215.857,363.687 220.047,356.735C224.523,349.211 224.904,346.735 221.761,344.544C218.523,342.259 217.38,342.64 212.523,347.116ZM255.857,441.02C248.809,447.116 243.761,449.02 235,449.02C226.523,448.925 219.476,446.64 212.142,441.211C209.571,439.401 206.523,437.973 204.809,437.973C201.285,437.973 197,441.973 197,445.211C197,454.354 217.761,465.973 233.857,465.973C256.142,465.973 278.714,448.64 268.714,439.211C265.095,435.878 261.19,436.449 255.857,441.02Z" style="fill:rgb(238,211,0);"/>
    <path d="M421.285,189.783C427.761,215.783 429.666,228.925 430.523,253.021C431.19,272.068 429.571,302.735 426.047,334.544C423.856,354.64 420.618,399.592 418.999,431.497C415.38,504.449 414.809,508.068 402.333,551.497C394.714,578.068 391.666,591.306 387.476,615.497C374.428,692.83 359.666,738.354 329.666,794.544C326.809,799.973 322.238,808.544 319.571,813.496C312.904,826.163 307.476,834.258 304.238,836.639C300.333,839.592 292.714,842.258 289.571,841.877L286.904,841.496L297.38,820.163C308.523,797.306 311.285,790.449 315.666,773.973L318.523,763.496L318.238,723.592C317.857,678.83 318.523,671.496 324.523,645.973C326.428,638.068 328.238,630.544 328.618,629.306C329.857,624.735 327.095,627.211 321.571,635.496C312.904,648.544 308.142,659.592 305.38,672.925C303.19,683.687 302.999,686.83 302.999,717.973C302.999,760.544 301.666,770.258 293.38,788.544C291.761,792.163 291.571,792.353 291.285,789.973C286.238,752.544 276.428,723.592 260.428,699.401L254.142,689.877L262.904,671.687C276.809,642.83 278.238,639.782 288.428,616.068C310.523,564.544 324.523,520.544 333.38,474.544C340.047,439.878 342.142,421.592 344.523,379.021C345.857,353.116 347.095,344.163 350.999,328.64C352.809,321.687 358.999,303.021 362.714,293.497C367.476,281.116 384.047,247.783 394.999,228.64C405.095,210.83 411.952,196.449 415.285,186.068C416.523,182.164 417.761,179.021 418.047,179.021C418.428,179.021 419.856,183.878 421.285,189.783ZM402.714,364.735C402.428,366.259 400.999,372.925 399.571,379.497C398.142,386.163 396.047,395.782 394.999,401.021C393.952,406.259 391.666,416.83 389.952,424.544C388.333,432.259 385.856,443.687 384.523,449.973C383.19,456.354 380.714,468.259 378.999,476.544C377.285,484.735 374.999,496.259 373.952,501.973C372.904,507.782 370.523,521.116 368.618,531.497C366.714,541.973 363.761,558.354 362.142,567.973C360.428,577.687 357.952,592.258 356.523,600.544C353.666,617.306 353.571,617.782 354.904,616.449C355.38,615.973 357.476,609.401 359.476,601.973C364.237,584.735 367.571,572.735 370.618,561.973C376.904,539.687 386.714,494.735 391.38,466.544C396.142,437.878 404.904,363.592 403.666,362.354C403.476,362.163 402.999,363.211 402.714,364.735Z" style="fill:rgb(9,188,0);"/>
    <path d="M87.762,313.497C99.476,336.735 106.238,352.735 112.619,371.973C125.285,409.973 128.142,426.068 132.523,481.02C134.523,506.449 137,524.163 140.714,539.02C143.571,550.735 151.952,573.687 158.047,586.735C160.238,591.401 162.047,595.401 162.047,595.687C162.047,596.163 169.666,611.306 184.809,641.02C197.666,666.258 200.333,669.592 216.714,681.115C237.952,696.068 247.38,706.925 256.999,727.306C266.428,747.496 271.857,768.544 275.476,799.02C278.047,820.449 277.857,822.734 271.761,833.687C268.428,839.782 265.857,843.211 264.523,843.592C263.38,843.877 241.095,843.687 215,843.115C162.904,842.068 159.095,841.687 147.285,835.877C124.904,824.83 111.19,799.687 96.428,742.639C89.19,714.639 88.904,713.782 83.666,697.496C68.047,649.116 66.333,602.163 76.619,508.544C84.428,436.925 85.285,420.259 83.952,368.068C83.476,346.735 82.523,323.878 82.047,317.402C80.809,302.544 80.809,301.402 81.857,302.544C82.428,303.116 85,307.973 87.762,313.497ZM109.095,551.497C109,552.068 109.666,558.639 110.523,565.973C114.619,601.877 122.047,633.211 132.714,660.354C139.952,678.83 153.381,703.306 167.095,723.306C174.714,734.354 195,759.401 195.761,758.544C196.047,758.354 194.428,755.211 192.238,751.782C187.285,743.973 179,730.068 179,729.592C179,729.306 176.714,725.211 173.857,720.354C169.381,712.544 160.333,694.449 152.714,677.973C144.619,660.544 131.762,626.639 125.19,605.497C120.523,590.735 112.047,559.973 111.952,557.878C111.857,556.163 109.19,550.163 109.095,551.497ZM100.047,672.83C100.047,673.687 103.857,692.163 106.619,704.544C110.333,721.115 118.809,745.496 126.619,761.687C131.19,771.306 142.619,789.02 150.238,798.544C162.333,813.496 180.809,827.211 197.285,833.401C204.619,836.163 205.761,835.687 200.714,831.687C191.38,824.258 173.571,805.592 161.476,790.544C148.619,774.353 131.762,747.401 124.333,731.211C116.333,713.973 103.952,682.068 102.523,675.306C101.952,672.449 100.047,670.544 100.047,672.83Z" style="fill:rgb(9,188,0);"/>
    <g transform="matrix(0.095238,-1.4585e-16,-1.4585e-16,-0.095238,-261,1013.02)">
        <path d="M6398,10610C6378,10590 6373,10575 6377,10555C6420,10321 6425,10203 6400,10017C6356,9693 6271,9422 6130,9154C6100,9098 6070,9051 6064,9051C6058,9051 6048,9078 6041,9111C6010,9275 5895,9476 5753,9615C5622,9742 5435,9850 5271,9891C4961,9970 4591,9891 4212,9666C3858,9455 3512,9115 2984,8459C2813,8247 2741,8144 2740,8113C2740,8061 2798,8030 2837,8060C2869,8085 3076,8309 3171,8421C3479,8786 3552,8866 3769,9083C4022,9336 4189,9463 4431,9586C4769,9757 5079,9791 5341,9684C5591,9581 5793,9352 5870,9087C5893,9007 5906,8914 5894,8915C5870,8916 5761,8946 5754,8953C5750,8958 5736,8996 5724,9037C5636,9333 5353,9550 5025,9573C4871,9584 4638,9539 4519,9476C4491,9461 4494,9461 4578,9468C5000,9506 5341,9394 5533,9153C5583,9091 5656,8960 5647,8951C5644,8948 5605,8943 5561,8939L5480,8932L5409,9000C5310,9097 5256,9138 5170,9181C4924,9304 4623,9306 4328,9186C4117,9101 3902,8949 3708,8748C3611,8647 3450,8458 3418,8407C3398,8375 3400,8376 3450,8419C3718,8650 3873,8770 4043,8880C4140,8943 4339,9036 4440,9066C4739,9156 5019,9111 5220,8942L5255,8913L5114,8921C4728,8945 4525,8923 4326,8834C4171,8764 4069,8698 3967,8602C3887,8526 3874,8496 3881,8405C3889,8315 3867,8166 3810,7905C3787,7799 3763,7687 3756,7657C3750,7627 3740,7603 3734,7605C3723,7609 3613,7813 3534,7977C3486,8075 3472,8096 3448,8102C3416,8110 3396,8100 3368,8063C3350,8039 3350,8034 3370,7933C3403,7762 3429,7374 3445,6821C3454,6514 3454,6352 3445,6170C3433,5932 3400,5544 3381,5406C3348,5175 3314,4761 3302,4452C3291,4197 3313,3893 3360,3612C3375,3525 3413,3382 3460,3239C3491,3142 3510,3075 3550,2924C3664,2484 3723,2305 3808,2137C3939,1878 4124,1710 4339,1653L4410,1635L4404,1599C4394,1547 4424,1477 4475,1434L4518,1397L4491,1376C4427,1325 4404,1248 4436,1187C4460,1140 4529,1087 4593,1067C4647,1050 4664,1029 4623,1029C4589,1029 4484,963 4458,925C4400,842 4443,741 4564,675C4598,657 4599,654 4599,593C4599,478 4683,353 4800,293C4863,261 4977,221 5005,221C5043,220 5082,265 5082,308C5082,360 5057,383 4956,422C4854,461 4778,525 4778,569L4778,595L4953,595C5084,595 5148,600 5202,613C5356,652 5439,720 5439,809C5439,901 5381,956 5236,1003C5189,1018 5143,1033 5135,1036C5126,1039 5153,1051 5196,1062C5284,1085 5372,1137 5407,1186C5443,1236 5440,1303 5400,1352C5327,1444 5185,1488 4925,1502C4696,1514 4583,1541 4591,1584C4594,1600 4643,1602 5198,1608C5841,1614 5884,1618 5985,1669C6066,1711 6137,1802 6242,2000C6270,2052 6311,2127 6334,2167C6389,2262 6462,2411 6548,2601C6740,3030 6889,3555 6977,4121C7010,4332 7049,4505 7126,4772C7271,5275 7290,5405 7319,6080C7337,6527 7369,6967 7408,7308C7457,7749 7452,8133 7391,8442C7357,8618 7347,8654 7271,8915C7154,9311 7137,9345 7067,9329C7012,9317 7004,9293 7004,9144C7004,9071 6997,8976 6989,8934C6971,8845 6921,8687 6880,8595C6846,8517 6625,8127 6615,8127C6597,8127 6639,8334 6724,8669C6841,9131 6843,9296 6734,9838C6699,10015 6644,10238 6610,10348C6600,10377 6579,10444 6563,10498C6546,10552 6524,10605 6514,10616C6488,10646 6431,10643 6398,10610ZM6577,9723C6602,9609 6636,9321 6636,9227C6636,9106 6609,8920 6567,8759C6440,8275 6419,8122 6446,7875L6455,7796L6397,7644C6365,7561 6337,7497 6336,7503C6335,7508 6328,7581 6321,7665C6309,7808 6292,7939 6252,8201C6230,8346 6172,8571 6132,8666C6115,8707 6101,8745 6101,8750C6101,8755 6138,8822 6183,8897C6306,9102 6415,9332 6466,9492C6499,9597 6541,9771 6542,9804C6542,9850 6558,9814 6577,9723ZM5825,8747C5941,8696 5995,8591 6052,8306C6100,8067 6141,7742 6163,7429C6192,7017 6187,6578 6147,6190C6122,5945 6053,5558 6001,5366C5992,5334 5973,5263 5958,5208C5881,4923 5703,4435 5585,4184C5574,4160 5565,4138 5565,4135C5565,4131 5542,4079 5514,4020C5486,3960 5446,3875 5425,3830C5346,3662 5298,3564 5284,3541C5268,3517 5268,3517 5246,3536C5234,3547 5180,3586 5127,3622C4957,3737 4967,3724 4758,4137C4402,4843 4351,5015 4300,5681C4282,5910 4267,6057 4252,6143C4217,6349 4176,6520 4125,6676C4104,6741 4104,6745 4120,6865C4130,6933 4144,7021 4152,7061C4176,7177 4227,7469 4273,7754C4327,8088 4361,8262 4390,8360C4453,8572 4548,8679 4723,8737C4788,8759 4802,8760 4961,8751C5191,8738 5383,8741 5502,8760C5639,8782 5755,8777 5825,8747ZM7164,8644C7232,8371 7252,8233 7261,7980C7268,7780 7251,7458 7214,7124C7191,6913 7157,6441 7140,6106C7102,5340 7096,5302 6965,4846C6885,4567 6853,4428 6809,4174C6672,3362 6517,2884 6202,2294C6172,2237 6124,2147 6096,2095C6026,1962 5969,1877 5935,1852C5894,1821 5814,1793 5781,1797L5753,1801L5863,2025C5980,2265 6009,2337 6055,2510L6085,2620L6082,3039C6078,3509 6085,3586 6148,3854C6168,3937 6187,4016 6191,4029C6204,4077 6175,4051 6117,3964C6026,3827 5976,3711 5947,3571C5924,3458 5922,3425 5922,3098C5922,2651 5908,2549 5821,2357C5804,2319 5802,2317 5799,2342C5746,2735 5643,3039 5475,3293L5409,3393L5501,3584C5647,3887 5662,3919 5769,4168C6001,4709 6148,5171 6241,5654C6311,6018 6333,6210 6358,6657C6372,6929 6385,7023 6426,7186C6445,7259 6510,7455 6549,7555C6599,7685 6773,8035 6888,8236C6994,8423 7066,8574 7101,8683C7114,8724 7127,8757 7130,8757C7134,8757 7149,8706 7164,8644ZM4291,8592C4223,8458 4181,8268 4074,7628C3998,7174 3986,7109 3977,7109C3969,7109 3888,7274 3864,7342C3852,7374 3852,7390 3863,7436C3962,7842 3990,7970 4020,8150C4037,8250 4054,8363 4058,8402C4064,8466 4069,8476 4104,8507C4145,8543 4294,8641 4308,8641C4312,8641 4305,8619 4291,8592ZM3662,7345C3785,7101 3856,6933 3923,6731C4056,6332 4086,6163 4132,5586C4153,5319 4179,5133 4218,4977C4248,4854 4336,4613 4400,4476C4423,4427 4442,4385 4442,4382C4442,4377 4522,4218 4681,3906C4816,3641 4844,3606 5016,3485C5239,3328 5338,3214 5439,3000C5538,2788 5595,2567 5633,2247C5660,2022 5658,1998 5594,1883C5559,1819 5532,1783 5518,1779C5506,1776 5272,1778 4998,1784C4451,1795 4411,1799 4287,1860C4052,1976 3908,2240 3753,2839C3677,3133 3674,3142 3619,3313C3455,3821 3437,4314 3545,5297C3627,6049 3636,6224 3622,6772C3617,6996 3607,7236 3602,7304C3589,7460 3589,7472 3600,7460C3606,7454 3633,7403 3662,7345ZM5049,1312C5097,1306 5158,1293 5184,1282C5230,1264 5232,1262 5211,1251C5160,1224 5042,1204 4925,1204C4803,1204 4635,1224 4625,1240C4614,1257 4689,1286 4788,1303C4909,1325 4938,1326 5049,1312ZM5084,861C5135,850 5189,834 5205,826L5234,810L5203,798C5158,780 5058,767 4971,767C4843,766 4641,810 4641,838C4641,846 4690,865 4741,875C4803,888 4999,880 5084,861Z" style="fill-rule:nonzero;"/>
        <path d="M4762,7956C4652,7894 4598,7664 4647,7473C4714,7214 4948,7244 5009,7519C5027,7600 5017,7793 4993,7849C4940,7970 4856,8009 4762,7956Z" style="fill-rule:nonzero;"/>
        <path d="M5487,7885C5431,7834 5403,7770 5386,7660C5342,7363 5505,7144 5668,7282C5760,7359 5801,7616 5748,7775C5714,7877 5657,7928 5576,7928C5540,7928 5525,7920 5487,7885Z" style="fill-rule:nonzero;"/>
        <path d="M4972,6992C4845,6875 4826,6703 4931,6617C5009,6552 5200,6533 5309,6578C5356,6598 5365,6610 5365,6653C5366,6710 5344,6719 5208,6717C5084,6715 5052,6723 5022,6761C5000,6789 5007,6818 5051,6891C5098,6970 5102,6996 5069,7019C5035,7043 5023,7039 4972,6992Z" style="fill-rule:nonzero;"/>
        <path d="M5427,6006C5353,5942 5300,5922 5208,5922C5119,5923 5045,5947 4968,6004C4941,6023 4909,6038 4891,6038C4854,6038 4809,5996 4809,5962C4809,5866 5027,5744 5196,5744C5430,5744 5667,5926 5562,6025C5524,6060 5483,6054 5427,6006Z" style="fill-rule:nonzero;"/>
        <path d="M6969,6807C6966,6791 6951,6721 6936,6652C6921,6582 6899,6481 6888,6426C6877,6371 6853,6260 6835,6179C6818,6098 6792,5978 6778,5912C6764,5845 6738,5720 6720,5633C6702,5547 6678,5426 6667,5366C6656,5305 6631,5165 6611,5056C6591,4946 6560,4774 6543,4673C6525,4571 6499,4418 6484,4331C6454,4155 6453,4150 6467,4164C6472,4169 6494,4238 6515,4316C6565,4497 6600,4623 6632,4736C6698,4970 6801,5442 6850,5738C6900,6039 6992,6819 6979,6832C6977,6834 6972,6823 6969,6807Z" style="fill-rule:nonzero;"/>
        <path d="M3886,4846C3885,4840 3892,4771 3901,4694C3944,4317 4022,3988 4134,3703C4210,3509 4351,3252 4495,3042C4575,2926 4788,2663 4796,2672C4799,2674 4782,2707 4759,2743C4707,2825 4620,2971 4620,2976C4620,2979 4596,3022 4566,3073C4519,3155 4424,3345 4344,3518C4259,3701 4124,4057 4055,4279C4006,4434 3917,4757 3916,4779C3915,4797 3887,4860 3886,4846Z" style="fill-rule:nonzero;"/>
        <path d="M3791,3572C3791,3563 3831,3369 3860,3239C3899,3065 3988,2809 4070,2639C4118,2538 4238,2352 4318,2252C4445,2095 4639,1951 4812,1886C4889,1857 4901,1862 4848,1904C4750,1982 4563,2178 4436,2336C4301,2506 4124,2789 4046,2959C3962,3140 3832,3475 3817,3546C3811,3576 3791,3596 3791,3572Z" style="fill-rule:nonzero;"/>
    </g>
</svg>
