<?xml version="1.0" standalone="no"?>
<!DOCTYPE svg PUBLIC "-//W3C//DTD SVG 20010904//EN" "http://www.w3.org/TR/2001/REC-SVG-20010904/DTD/svg10.dtd">
<svg version="1.0" xmlns="http://www.w3.org/2000/svg" width="670.736089pt" height="897.329267pt"
  viewBox="0 0 670.736089 897.329267" preserveAspectRatio="xMidYMid meet">
  <style>
    /* Default color for light mode (e.g., black) */
    .favicon-path {
      fill: #000000;
    }

    /* Color for dark mode (white) */
    @media (prefers-color-scheme: dark) {
      .favicon-path {
        fill: #ffffff;
      }
    }
  </style>
  <g transform="translate(-127.070531,976.938968) rotate(-360.00) scale(0.095238,-0.095238)" class="favicon-path"
    stroke="none">
    <path d="M5857 10248 c-9 -6 -25 -35 -35 -66 -45 -136 -124 -251 -221 -323
-107 -79 -206 -112 -430 -141 -235 -32 -386 -82 -524 -174 -71 -48 -165 -138
-212 -205 l-22 -31 -69 65 c-104 97 -231 166 -386 210 -58 16 -111 19 -362 20
-317 1 -349 5 -472 63 -106 51 -225 181 -263 290 -9 24 -24 53 -33 63 -20 22
-65 25 -92 5 -46 -34 -65 -280 -32 -427 20 -87 75 -216 115 -269 33 -42 33
-56 2 -56 -34 0 -160 -36 -219 -62 -79 -34 -207 -126 -276 -196 -67 -67 -92
-100 -243 -308 -115 -161 -220 -259 -335 -316 -98 -49 -227 -84 -306 -84 -46
0 -62 -5 -83 -26 -47 -48 -28 -92 67 -150 150 -92 262 -123 443 -122 123 0
219 16 309 52 15 6 19 4 14 -8 -3 -9 -14 -82 -23 -162 -54 -460 -107 -614
-276 -793 -59 -62 -70 -80 -70 -110 0 -76 65 -91 211 -47 158 47 301 128 404
229 33 33 63 57 66 54 2 -3 10 -66 16 -141 24 -307 55 -668 79 -950 49 -561
57 -656 73 -861 9 -113 21 -264 26 -336 6 -72 18 -228 27 -346 12 -162 23
-239 42 -309 l27 -92 -22 -45 c-15 -32 -21 -65 -21 -122 -1 -138 -31 -399 -79
-677 -37 -220 -57 -395 -57 -506 0 -108 24 -301 47 -378 15 -49 15 -50 -15
-82 -35 -37 -54 -87 -53 -146 0 -56 103 -364 263 -788 11 -29 41 -111 67 -183
53 -146 70 -176 104 -189 28 -11 349 -58 762 -112 l299 -39 116 33 c196 57
482 151 507 167 24 16 44 70 44 120 0 16 5 31 10 34 5 3 37 -15 72 -40 300
-221 476 -304 758 -360 225 -44 582 -52 851 -18 468 58 1017 202 1397 366 49
22 117 51 152 65 128 54 311 154 341 188 22 26 32 51 37 93 8 66 -2 228 -18
268 -15 39 -60 83 -93 90 -26 6 -31 12 -37 56 -16 120 -67 231 -138 301 -94
93 -211 131 -529 173 -334 43 -535 97 -766 207 -390 185 -838 604 -991 927
-67 141 -84 243 -84 515 -1 209 4 273 39 572 22 185 44 374 50 420 19 179 84
741 99 861 8 69 20 173 27 231 12 110 18 165 52 446 11 95 30 265 42 378 12
113 28 257 37 320 8 64 20 165 27 226 7 61 16 114 20 118 3 5 29 -28 57 -72
81 -127 203 -276 233 -284 37 -9 75 15 87 53 6 18 14 117 18 219 5 138 10 187
20 187 7 0 39 -12 71 -26 86 -38 202 -59 333 -58 134 0 184 14 195 57 10 41
-18 73 -103 118 -97 50 -210 161 -271 265 -25 43 -73 135 -105 205 -51 109
-98 190 -173 295 -16 22 -14 23 63 51 189 69 353 230 425 415 37 96 40 137 13
162 -32 28 -72 21 -126 -24 -100 -84 -255 -136 -364 -121 -65 8 -174 51 -278
109 -130 72 -288 137 -332 137 -9 0 -15 4 -13 8 2 5 25 53 52 108 27 55 60
139 73 189 45 166 27 506 -30 569 -18 20 -71 24 -99 8z m-29 -528 c-45 -180
-154 -343 -230 -343 -57 0 -196 -43 -290 -89 -146 -70 -261 -196 -201 -219 8
-3 60 17 117 45 126 62 250 95 391 102 193 11 313 -21 514 -132 62 -35 151
-77 197 -93 75 -26 99 -29 213 -29 71 0 128 -3 128 -5 0 -11 -100 -73 -157
-99 -98 -44 -174 -52 -308 -33 -127 19 -160 16 -170 -15 -9 -30 -4 -36 88 -90
104 -62 199 -146 258 -229 25 -36 91 -155 146 -264 60 -120 122 -227 154 -266
30 -37 51 -70 48 -73 -10 -10 -92 18 -150 52 -30 17 -91 61 -135 98 -43 38
-85 68 -93 68 -34 0 -37 -26 -16 -127 20 -96 25 -244 11 -308 l-6 -31 -28 42
c-15 22 -64 109 -109 193 -93 177 -145 248 -225 312 -155 121 -331 156 -498
98 l-62 -21 -67 73 c-59 63 -197 177 -252 208 -17 10 -17 12 -1 36 31 47 127
135 199 182 82 55 199 103 302 127 41 9 74 20 74 26 0 14 -145 10 -210 -5
-103 -25 -237 -99 -315 -175 -38 -37 -82 -84 -97 -104 l-26 -35 -74 44 c-41
24 -112 60 -157 80 -80 35 -82 37 -79 70 6 61 45 163 88 230 56 86 134 161
247 236 119 80 93 87 -53 16 -92 -45 -119 -64 -177 -127 -74 -80 -133 -187
-160 -288 -8 -34 -18 -65 -21 -67 -3 -3 -57 10 -119 29 l-114 36 -12 44 c-16
60 -54 102 -120 131 -54 25 -61 25 -360 25 -298 0 -305 0 -359 -25 -64 -28
-112 -78 -140 -144 -11 -25 -23 -46 -26 -46 -3 0 -24 14 -45 31 -50 41 -146
73 -238 81 -125 10 -265 -38 -367 -126 -67 -59 -61 -82 10 -37 124 79 273 115
388 94 62 -11 174 -61 181 -81 2 -5 -27 -21 -63 -34 -233 -90 -384 -210 -454
-364 -38 -81 -80 -245 -99 -383 -42 -295 -166 -550 -356 -727 -53 -50 -180
-138 -188 -130 -2 2 10 32 27 66 66 133 100 269 134 541 41 328 86 490 174
621 23 33 44 73 47 89 8 41 -25 79 -69 79 -46 0 -91 -48 -161 -171 -63 -113
-84 -131 -210 -179 -61 -24 -109 -35 -175 -39 -93 -6 -210 3 -210 16 -1 4 22
16 49 25 74 27 200 113 282 195 69 67 117 127 262 328 92 128 228 251 334 303
147 73 308 99 438 70 145 -33 163 -33 183 -2 32 49 15 74 -84 128 -154 84
-249 192 -299 337 -31 90 -27 95 37 38 77 -69 210 -134 315 -155 66 -13 141
-16 357 -14 l273 3 89 -30 c49 -16 116 -43 150 -60 86 -43 185 -145 231 -236
29 -57 45 -77 66 -82 48 -12 67 3 103 82 67 145 164 248 311 330 86 48 216 83
415 112 278 40 396 91 535 231 l84 84 4 -34 c1 -19 -7 -74 -19 -121z m-1781
-824 c-40 -96 -47 -154 -18 -164 20 -8 34 10 34 42 1 31 22 90 40 112 17 19
76 25 76 7 0 -6 -7 -24 -15 -40 -35 -67 -41 -197 -42 -793 l-1 -587 -37 -32
c-54 -49 -158 -171 -209 -246 -24 -36 -47 -65 -51 -65 -4 0 -34 39 -67 87 -33
47 -96 124 -140 170 l-79 84 -12 531 c-16 703 -6 828 75 880 25 16 25 16 16
-15 -5 -17 -9 -50 -10 -73 0 -57 26 -57 43 1 7 23 20 57 29 75 l17 33 166 4
c90 1 171 4 179 5 10 2 12 -3 6 -16z m313 -203 c194 -40 420 -134 594 -247
169 -110 287 -216 419 -377 64 -78 190 -265 226 -337 47 -92 59 -92 124 1 51
75 185 244 199 253 7 4 20 0 29 -9 14 -14 9 -25 -48 -104 -68 -94 -81 -126
-53 -132 12 -2 33 17 62 55 24 33 45 58 47 56 2 -2 -5 -72 -17 -156 -11 -83
-30 -239 -41 -346 -12 -107 -28 -251 -37 -320 -8 -70 -25 -216 -37 -326 -12
-109 -36 -313 -52 -451 -17 -139 -50 -422 -73 -630 -23 -208 -49 -440 -58
-515 -16 -137 -47 -411 -48 -423 0 -4 -8 3 -18 15 -49 58 -110 71 -228 46 -70
-14 -169 -60 -196 -91 -19 -21 -28 -52 -62 -206 -41 -189 -103 -305 -213 -399
-119 -102 -122 -107 -122 -155 0 -25 14 -90 32 -145 37 -114 44 -218 22 -294
-20 -67 -106 -150 -186 -180 -56 -21 -77 -23 -204 -18 -113 3 -179 12 -319 43
-248 55 -224 37 -215 159 28 387 32 755 24 2079 -5 751 -9 1379 -9 1397 0 47
133 228 264 360 l108 108 0 560 c0 308 2 568 6 577 8 21 33 21 130 -4 72 -18
105 -19 105 -2 -1 28 -35 41 -202 79 -26 6 -29 12 -29 49 0 46 -1 46 76 30z
m-991 -100 c-4 -39 -5 -40 -144 -110 -77 -40 -173 -96 -213 -126 -41 -29 -76
-51 -79 -48 -11 11 54 104 108 153 56 52 271 168 312 169 15 0 18 -7 16 -38z
m-9 -169 c-1 -129 23 -935 28 -979 5 -42 15 -57 101 -145 53 -53 135 -153 182
-220 l86 -123 8 -142 c4 -78 8 -785 9 -1570 0 -1107 -2 -1474 -14 -1633 -7
-113 -15 -207 -17 -209 -7 -6 -144 51 -215 91 -126 70 -187 151 -273 362 -53
130 -165 254 -267 297 -21 9 -37 18 -37 21 0 3 -12 58 -26 123 -24 113 -69
600 -56 612 12 13 42 -11 61 -49 11 -22 35 -100 52 -173 53 -223 137 -367 273
-470 70 -52 112 -61 108 -22 -1 11 -18 69 -39 128 -42 117 -66 260 -54 321 6
31 15 43 47 60 22 11 43 27 46 35 3 8 -17 47 -46 86 -57 78 -98 190 -88 238 4
15 47 91 97 168 124 193 163 282 125 282 -8 -1 -52 -17 -99 -37 -66 -29 -98
-37 -148 -37 -39 0 -64 4 -64 11 0 6 23 55 51 108 88 161 168 388 210 592 37
178 25 239 -32 158 -52 -75 -120 -149 -185 -198 -38 -28 -71 -50 -73 -47 -3 3
0 20 6 39 23 69 54 286 61 417 9 188 -26 523 -60 564 -18 22 -39 6 -47 -36
-48 -262 -164 -612 -261 -787 -50 -90 -53 -87 -63 72 -4 60 -14 181 -22 267
-20 215 -35 395 -52 623 l-14 193 40 75 c84 157 136 331 173 583 l18 119 79
63 c117 92 195 143 290 188 47 22 89 40 93 40 4 1 8 -26 8 -59z m2412 -300
l33 -18 -65 -89 c-36 -48 -67 -89 -70 -89 -3 0 -34 46 -70 102 -46 72 -61 105
-53 111 22 14 188 2 225 -17z m-2656 -1464 c7 -216 -23 -426 -88 -629 -20 -61
-15 -91 14 -81 47 17 166 93 225 145 36 32 67 56 69 54 6 -6 -47 -197 -76
-280 -40 -109 -102 -245 -157 -344 -26 -46 -47 -91 -47 -100 0 -47 122 -72
222 -46 33 9 62 13 65 10 6 -6 -3 -21 -96 -162 -37 -56 -71 -117 -77 -137 -19
-66 21 -201 88 -295 l21 -30 -32 -29 c-53 -48 -56 -147 -11 -335 11 -48 19
-89 16 -92 -3 -3 -27 19 -53 49 -63 69 -117 180 -144 294 -45 190 -55 220 -85
261 -17 23 -50 50 -73 60 -28 13 -41 25 -41 40 0 12 -7 100 -16 195 -8 95 -28
328 -43 516 l-27 344 60 101 c101 173 170 349 246 634 22 80 34 35 40 -143z
m2366 -2062 c12 -12 37 -54 55 -92 26 -55 32 -83 31 -131 -1 -59 -11 -89 -21
-62 -3 7 -14 13 -25 13 -28 0 -26 -42 6 -121 21 -51 26 -81 27 -157 0 -104 22
-276 47 -373 45 -175 191 -401 401 -620 l78 -82 -125 -63 c-148 -74 -247 -147
-373 -271 -92 -92 -106 -114 -75 -126 12 -5 40 16 92 70 132 135 317 261 477
325 l50 19 41 -34 41 -35 -75 -38 c-157 -79 -271 -161 -405 -294 -54 -54 -90
-98 -90 -111 0 -39 37 -22 93 42 78 89 288 243 418 305 l108 52 41 -29 c23
-16 42 -32 43 -36 0 -4 -37 -26 -81 -50 -45 -25 -122 -71 -171 -103 -112 -74
-305 -260 -305 -294 0 -13 6 -23 13 -23 6 0 57 43 113 97 55 54 126 117 158
140 71 51 231 144 291 167 44 18 45 17 92 -12 26 -17 47 -33 47 -36 0 -3 -29
-20 -65 -37 -228 -108 -579 -414 -474 -414 9 0 63 44 119 97 123 118 225 190
373 262 l112 54 47 -25 c25 -14 46 -27 46 -30 0 -3 -8 -13 -17 -24 -10 -10
-23 -41 -30 -69 l-13 -50 -78 -7 c-126 -11 -226 -56 -297 -135 -44 -48 -95
-150 -85 -167 11 -18 71 -12 149 14 127 43 191 84 278 179 l48 53 27 -43 c58
-93 173 -156 311 -172 78 -9 138 -2 138 16 0 20 -37 70 -83 113 -55 51 -109
80 -211 112 -46 15 -54 20 -37 26 11 4 44 18 73 31 l53 24 58 -20 c162 -57
385 -105 624 -134 265 -32 327 -50 397 -115 72 -66 97 -125 97 -230 l0 -87
-143 -67 c-429 -201 -986 -365 -1469 -432 -189 -27 -637 -27 -777 0 -207 39
-386 120 -639 287 -283 187 -451 279 -644 355 -130 51 -376 128 -441 138 -37
6 -40 10 -55 60 -46 159 -64 352 -54 585 8 197 25 421 32 428 2 2 56 -8 118
-22 225 -54 273 -62 410 -68 111 -4 154 -2 215 13 151 37 247 108 310 231 40
77 46 247 13 373 -12 49 -25 101 -28 116 -4 22 10 42 93 126 133 135 186 241
239 482 13 55 25 102 27 104 10 10 148 53 170 54 13 0 34 -10 46 -22z m-2520
-598 c88 -45 146 -126 200 -283 55 -158 212 -318 380 -385 36 -15 69 -30 75
-34 6 -4 33 -16 61 -26 44 -17 50 -22 50 -49 0 -17 -3 -31 -5 -31 -3 0 -32 10
-64 22 -44 17 -62 19 -71 10 -21 -20 6 -46 64 -64 29 -9 57 -19 60 -23 4 -4 1
-107 -6 -230 -14 -251 -4 -470 30 -632 10 -51 16 -94 13 -96 -3 -2 -36 3 -74
10 -38 7 -139 26 -226 42 -188 34 -438 93 -515 122 -81 30 -108 81 -137 261
-31 186 -13 473 50 796 25 135 51 344 51 425 0 32 4 62 10 65 5 4 27 -8 47
-26 37 -33 69 -36 69 -6 0 16 -57 70 -74 70 -18 0 -52 41 -52 63 0 26 11 26
64 -1z m3802 -1509 c21 -10 40 -21 40 -25 0 -8 -48 -24 -102 -35 -42 -9 -46 9
-13 51 26 33 24 32 75 9z m-242 -179 c-12 -17 -38 -43 -59 -59 -63 -48 -242
-130 -255 -117 -3 3 7 25 22 48 56 83 181 153 283 156 l30 2 -21 -30z m350
-38 c41 -20 88 -51 105 -68 l30 -32 -42 0 c-53 0 -147 27 -187 55 -45 30 -89
73 -89 84 0 21 111 -3 183 -39z m-4005 -63 c119 -49 335 -102 603 -148 711
-122 967 -219 1499 -568 397 -261 604 -321 1095 -320 210 1 281 5 426 27 388
57 634 119 1088 272 143 49 336 131 499 212 l134 67 0 -89 0 -89 -160 -78
c-921 -449 -2052 -622 -2646 -405 -108 40 -243 112 -349 189 -402 288 -606
401 -891 495 -139 45 -265 73 -632 140 -496 91 -675 132 -727 168 -22 16 -35
51 -49 136 -6 31 -4 39 6 34 8 -3 54 -23 104 -43z m107 -347 c54 -15 162 -38
240 -52 531 -96 773 -145 788 -161 4 -4 11 -131 15 -282 l8 -274 -272 35
c-491 63 -635 85 -644 94 -8 9 -242 648 -242 661 0 7 -1 7 107 -21z m1291
-295 c86 -33 227 -104 301 -152 l55 -36 -7 -58 c-4 -34 -14 -63 -24 -71 -9 -8
-79 -33 -154 -57 -75 -23 -161 -51 -192 -62 -42 -15 -56 -17 -59 -7 -2 7 -7
116 -11 242 -5 181 -4 228 7 228 7 0 45 -12 84 -27z" />
    <path d="M5497 8611 c-96 -27 -152 -62 -152 -93 0 -18 22 -15 131 19 110 34
258 32 360 -3 110 -39 185 -87 267 -170 39 -39 75 -69 79 -65 10 10 -37 93
-78 136 -87 92 -182 150 -295 179 -83 22 -231 21 -312 -3z" />
    <path d="M3587 8646 c-13 -33 -7 -180 7 -192 28 -23 39 9 39 111 0 89 -2 98
-20 98 -11 0 -23 -8 -26 -17z" />
    <path d="M4008 8634 c-3 -5 -8 -46 -12 -92 -7 -87 1 -118 28 -108 11 4 17 32
22 98 3 50 4 96 1 101 -7 11 -33 11 -39 1z" />
    <path d="M3590 8346 c-14 -27 -7 -173 10 -190 23 -23 33 6 33 96 0 68 -4 96
-15 105 -12 10 -18 8 -28 -11z" />
    <path d="M3997 8330 c-10 -10 -8 -174 3 -191 5 -9 16 -12 26 -8 25 9 20 199
-5 204 -9 1 -20 -1 -24 -5z" />
    <path d="M3598 8057 c-4 -4 -7 -48 -7 -98 0 -91 10 -119 38 -108 11 4 15 28
15 93 0 48 -3 94 -7 103 -6 17 -27 22 -39 10z" />
    <path d="M4008 8036 c-4 -4 -7 -51 -7 -105 0 -89 1 -98 19 -98 28 0 30 13 23
115 -5 80 -16 107 -35 88z" />
    <path d="M3609 7763 c-12 -12 -9 -201 3 -209 6 -3 19 0 28 7 13 11 15 29 9 98
-7 79 -23 121 -40 104z" />
    <path d="M4007 7742 c-10 -10 -8 -174 3 -191 5 -8 17 -12 26 -9 14 6 17 23 17
90 0 46 -3 91 -6 100 -7 17 -27 22 -40 10z" />
    <path d="M3637 7492 c-4 -9 7 -33 24 -55 16 -21 53 -69 82 -106 29 -37 61 -73
72 -80 20 -12 18 -15 91 85 20 28 51 66 68 86 43 48 52 65 39 77 -17 18 -47
-7 -118 -96 -36 -46 -70 -84 -74 -84 -5 0 -19 15 -32 34 -38 54 -127 155 -137
155 -5 0 -12 -8 -15 -16z" />
    <path d="M4582 8511 c-8 -22 -13 -17 78 -62 78 -37 111 -40 105 -8 -3 17 -97
68 -148 80 -21 5 -30 3 -35 -10z" />
    <path d="M4830 8386 c0 -17 31 -46 98 -89 60 -40 83 -43 79 -10 -3 16 -27 39
-72 68 -69 46 -105 56 -105 31z" />
    <path d="M5064 8214 c-5 -12 13 -35 66 -83 74 -68 91 -75 97 -41 3 12 -19 40
-62 80 -68 65 -90 74 -101 44z" />
    <path d="M5275 8007 c-7 -18 121 -195 141 -195 43 0 15 62 -74 163 -44 50 -58
56 -67 32z" />
    <path d="M5465 7749 c-3 -6 17 -50 45 -97 28 -48 64 -109 80 -137 18 -32 35
-49 49 -49 35 0 176 184 164 215 -11 28 -26 17 -86 -63 -33 -43 -63 -81 -68
-84 -5 -3 -21 17 -37 44 -90 158 -128 202 -147 171z" />
    <path d="M4656 7148 c-147 -147 -111 -552 54 -607 50 -16 100 2 143 53 47 54
72 125 79 226 14 208 -69 373 -189 373 -35 0 -49 -8 -87 -45z" />
    <path d="M5370 7138 c-46 -40 -73 -93 -94 -179 -68 -292 113 -562 268 -398 54
57 75 124 81 255 7 149 -19 244 -86 311 -38 38 -51 45 -88 45 -33 0 -51 -8
-81 -34z" />
    <path d="M5195 6289 c-26 -16 -23 -63 8 -109 73 -107 73 -143 -1 -175 -38 -17
-65 -21 -147 -18 -95 3 -102 2 -121 -22 -24 -29 -26 -62 -4 -92 30 -43 198
-60 307 -30 193 51 227 249 71 411 -45 47 -76 56 -113 35z" />
    <path d="M4663 5432 c-40 -50 -27 -88 63 -178 67 -69 159 -116 253 -132 171
-28 429 86 429 190 0 41 -37 85 -71 85 -15 0 -56 -18 -91 -40 -89 -56 -132
-68 -221 -63 -90 6 -118 20 -209 102 -81 74 -117 82 -153 36z" />
    <path d="M5403 4537 c-9 -15 2 -32 20 -32 8 0 24 -25 35 -56 11 -30 27 -55 35
-55 24 0 22 50 -4 100 -18 36 -31 48 -52 50 -15 2 -31 -1 -34 -7z" />
    <path d="M5304 4497 c-5 -10 -12 -41 -16 -67 -6 -40 -4 -50 10 -56 10 -3 20
-4 23 -2 7 8 23 83 23 114 1 33 -25 40 -40 11z" />
    <path d="M5263 4292 c-5 -7 -19 -38 -29 -68 -15 -42 -17 -58 -8 -68 19 -18 37
2 60 64 18 52 17 85 -3 85 -5 0 -14 -6 -20 -13z" />
    <path d="M5130 4035 c-50 -63 -55 -82 -21 -82 22 0 101 97 96 120 -5 33 -29
21 -75 -38z" />
    <path d="M4988 3878 c-25 -32 -27 -51 -7 -59 17 -7 70 47 70 70 0 27 -39 20
-63 -11z" />
    <path d="M5002 3766 c-2 -8 1 -42 9 -76 10 -43 19 -63 32 -66 15 -2 18 5 18
40 0 73 -42 146 -59 102z" />
    <path d="M5026 3531 c-3 -10 -8 -46 -12 -79 -7 -56 -5 -60 15 -60 24 0 33 23
35 100 2 40 -2 52 -15 55 -10 2 -20 -5 -23 -16z" />
    <path d="M4948 3285 c-60 -90 -61 -91 -47 -105 27 -27 119 92 104 133 -10 26
-26 18 -57 -28z" />
    <path d="M4743 3107 c-44 -22 -60 -37 -58 -49 5 -24 40 -19 105 15 35 17 51
31 51 46 0 29 -26 26 -98 -12z" />
    <path d="M3923 3114 c-8 -23 48 -47 117 -51 63 -3 69 23 9 42 -75 25 -118 28
-126 9z" />
    <path d="M4172 3061 c-10 -28 8 -36 94 -44 71 -6 81 -5 81 11 0 22 -30 34
-108 43 -51 7 -61 5 -67 -10z" />
    <path d="M4427 3039 c-11 -28 3 -36 65 -36 80 0 107 9 107 33 0 17 -9 20 -83
20 -66 0 -84 -4 -89 -17z" />
    <path d="M3035 3776 c0 -24 47 -128 62 -138 29 -17 32 14 7 80 -19 50 -31 68
-47 71 -15 2 -22 -3 -22 -13z" />
    <path d="M3140 3559 c0 -30 80 -138 116 -157 16 -9 22 -8 27 5 4 10 -16 43
-54 90 -55 67 -89 91 -89 62z" />
    <path d="M3346 3353 c-15 -15 -5 -33 38 -63 62 -44 111 -62 125 -47 9 8 7 17
-7 33 -11 11 -24 21 -29 21 -5 0 -30 14 -55 32 -47 32 -60 36 -72 24z" />
  </g>
</svg>